Info

General
Format                                   : Matroska
File size                                : 816 MiB
Duration                                 : 2h 14mn
Overall bit rate                         : 840 Kbps
Movie name                               : Son Of Sardar ~ Kishan(Wall.e)

Video
ID                                       : 1
Format                                   : MPEG Video
Duration                                 : 2h 14mn
Bit rate                                 : 695 Kbps
Maximum bit rate                         : 9 672 Kbps
Width                                    : 352 pixels
Height                                   : 288 pixels
Frame rate                               : 25.000 fps
Stream size                              : 672 MiB (83%)
Title                                    : Son Of Sardar ~ Kishan(Wall.e)

Audio
ID                                       : 2
Format                                   : MPEG Audio
Duration                                 : 2h 14mn
Bit rate                                 : 128 Kbps
Channel(s)                               : 2 channels
Stream size                              : 124 MiB (15%)

Sample:

Ripper Note:
Check sample before download movie.

Thanks:
A Big Thanks To ExDKing For This Source
